<?xml version="1.0" encoding="utf-8"?>
<svg viewBox="128.334 104.943 164.291 150" xmlns="http://www.w3.org/2000/svg" xmlns:bx="https://boxy-svg.com">
  <rect x="142.625" y="104.943" width="150" height="150" style="fill: rgba(80, 48, 175, 0.13);"/>
  <path style="fill: rgb(199, 233, 75);" d="M 243.674 225.487 C 280.132 225.487 302.918 186.084 284.69 154.561 C 284.404 154.068 284.112 153.58 283.808 153.098 C 255.236 107.518 189.523 105.34 157.986 148.927 C 133.907 186.712 159.826 236.353 204.643 238.28 C 218.778 238.889 232.651 234.341 243.674 225.487 Z"/>
  <path style="fill: rgb(255, 251, 11);" d="M 237.434 223.601 C 272.057 223.601 293.697 186.121 276.386 156.137 C 276.115 155.668 275.836 155.204 275.548 154.745 C 248.414 111.39 186.008 109.318 156.058 150.778 C 133.191 186.719 157.806 233.937 200.366 235.77 C 213.79 236.349 226.965 232.023 237.434 223.601 Z"/>
  <ellipse style="fill: rgb(199, 233, 75);" cx="163.712" cy="166.868" rx="11.272" ry="12.368"/>
  <path d="M 269.17 273.54 m -24.66 0 a 24.66 24.66 0 1 0 49.32 0 a 24.66 24.66 0 1 0 -49.32 0 Z M 269.17 273.54 m -14.796 0 a 14.796 14.796 0 0 1 29.592 0 a 14.796 14.796 0 0 1 -29.592 0 Z" style="fill: rgb(80, 48, 175);" transform="matrix(-0.685251, 0.728307, -0.728307, -0.685251, 546.862122, 157.97403)" bx:shape="ring 269.17 273.54 14.796 14.796 24.66 24.66 1@8a843558"/>
  <ellipse style="fill: rgb(199, 233, 75);" cx="229.851" cy="161.828" rx="11.272" ry="12.368"/>
  <path d="M 269.17 273.54 m -24.66 0 a 24.66 24.66 0 1 0 49.32 0 a 24.66 24.66 0 1 0 -49.32 0 Z M 269.17 273.54 m -14.796 0 a 14.796 14.796 0 0 1 29.592 0 a 14.796 14.796 0 0 1 -29.592 0 Z" style="fill: rgb(80, 48, 175);" transform="matrix(-0.685251, 0.728307, -0.728307, -0.685251, 613.656006, 152.48822)" bx:shape="ring 269.17 273.54 14.796 14.796 24.66 24.66 1@8a843558"/>
  <path style="fill: none; stroke-width: 8px; stroke: rgb(80, 48, 175);" d="M 162.24 235.835 C 191.626 235.835 218.971 220.807 234.723 195.999" transform="matrix(0.939693, 0.34202, -0.34202, 0.939693, 85.817772, -54.863247)"/>
</svg>